# Blender v2.78 (sub 0) OBJ File: '18.blend'
# www.blender.org
mtllib Eggplant_01.mtl
o Eggplant_Circle.017
v -0.000000 4.421875 -4.852427
v -1.914545 3.972692 -4.198874
v -2.707575 2.888267 -2.621057
v -1.914545 1.803842 -1.043241
v 0.000000 1.354659 -0.389688
v 1.914545 1.803842 -1.043241
v 2.707576 2.888267 -2.621057
v 1.914545 3.972691 -4.198873
v 0.000000 5.710380 -3.768804
v -1.823781 5.282492 -3.146234
v -2.579216 4.249476 -1.643218
v -1.823781 3.216462 -0.140202
v 0.000000 2.788573 0.482368
v 1.823781 3.216462 -0.140202
v 2.579216 4.249476 -1.643218
v 1.823781 5.282491 -3.146234
v 0.000000 8.508989 -1.432648
v -1.589085 8.091246 -0.923979
v -2.247305 7.082723 0.304057
v -1.589085 6.074201 1.532093
v 0.000000 5.656456 2.040762
v 1.589085 6.074201 1.532092
v 2.247306 7.082723 0.304057
v 1.589085 8.091246 -0.923979
v 0.000000 10.632227 0.418209
v -1.384800 10.268187 0.861486
v -1.958402 9.389314 1.931651
v -1.384800 8.510444 3.001817
v 0.000000 8.146401 3.445094
v 1.384800 8.510444 3.001817
v 1.958403 9.389314 1.931651
v 1.384800 10.268187 0.861486
v 0.000000 10.787197 1.296363
v -0.933485 10.541800 1.595174
v -1.320148 9.949356 2.316565
v -0.933485 9.356915 3.037958
v 0.000000 9.111517 3.336768
v 0.933486 9.356915 3.037958
v 1.320148 9.949356 2.316565
v 0.933486 10.541800 1.595174
v 0.000000 10.501045 2.055126
v -0.374677 10.402549 2.175061
v -0.529873 10.164758 2.464609
v -0.374677 9.926967 2.754158
v 0.000000 9.828470 2.874093
v 0.374677 9.926967 2.754158
v 0.529874 10.164758 2.464609
v 0.374677 10.402549 2.175061
v -0.000000 3.153780 -5.508800
v -1.789150 2.734016 -4.898052
v -2.530240 1.720617 -3.423576
v -1.789150 0.707218 -1.949101
v 0.000000 0.287454 -1.338353
v 1.789150 0.707218 -1.949101
v 2.530240 1.720617 -3.423577
v 1.789150 2.734015 -4.898052
v 0.000000 1.995882 -5.248796
v -1.223164 1.708908 -4.831255
v -1.729815 1.016091 -3.823220
v -1.223164 0.323274 -2.815185
v 0.000000 0.036300 -2.397644
v 1.223164 0.323274 -2.815186
v 1.729815 1.016091 -3.823220
v 1.223164 1.708907 -4.831254
v 0.000000 1.446007 -4.754435
v -0.675186 1.287597 -4.523952
v -0.954857 0.905163 -3.967516
v -0.675186 0.522728 -3.411082
v 0.000000 0.364319 -3.180599
v 0.675186 0.522728 -3.411082
v 0.954857 0.905163 -3.967517
v 0.675186 1.287597 -4.523952
v 0.000000 0.874267 -4.047555
v -0.097014 10.793411 0.485066
v -1.341890 10.466154 0.883553
v -1.955782 9.406188 2.174229
v -1.518041 8.735483 2.990918
v 0.000000 8.235966 3.599158
v 1.438905 8.614231 3.138562
v 2.034919 9.527440 2.026584
v 1.438905 10.440651 0.914608
v 0.000000 10.979939 1.366475
v -0.969957 10.724955 1.676961
v -1.371727 10.109365 2.426538
v -0.969957 9.493775 3.176116
v 0.000000 9.238790 3.486600
v 0.969957 9.493775 3.176115
v 1.371727 10.109365 2.426537
v 0.969957 10.724955 1.676961
v 0.222246 10.559254 2.171118
v -0.492232 10.380128 2.389233
v -0.215371 9.959590 2.901305
v 0.485358 10.152448 2.666468
v 0.000000 7.634808 3.942222
v 1.438905 8.013072 3.481626
v 0.435385 7.918126 4.360760
v 1.003520 8.067479 4.178899
v 0.719453 8.277385 4.473919
v 2.495805 9.543219 1.524173
v 2.040840 10.240315 0.675350
v 2.749609 10.489099 1.142294
v -0.359214 11.071477 0.008293
v -1.364022 10.807330 0.329934
v -1.157762 11.404966 0.181886
v -2.457906 9.077054 2.366616
v -2.104625 8.535759 3.025732
v -2.774117 9.290713 3.013403
v 0.119281 10.552171 2.445282
v -0.264184 10.456033 2.562346
v -0.115591 10.230327 2.837179
v 0.260496 10.333835 2.711141
v 0.089332 10.922690 2.939709
v -0.197849 10.831336 3.003884
v -0.086566 10.616860 3.154546
v 0.195089 10.715219 3.085452
v 0.101723 11.391069 3.643272
v -0.225288 11.277391 3.704629
v -0.098571 11.010508 3.848678
v 0.222147 11.132898 3.782616
v -0.097014 10.660445 0.393679
v -1.341890 10.333188 0.792166
v -1.955782 9.273222 2.082842
v -1.518041 8.602517 2.899531
v 0.000000 8.103001 3.507771
v 1.438905 8.481265 3.047175
v 2.034919 9.394474 1.935197
v 1.438905 10.307685 0.823221
v 0.000000 10.846973 1.275088
v -0.969957 10.591989 1.585574
v -1.371727 9.976398 2.335151
v -0.969957 9.360809 3.084729
v 0.000000 9.105824 3.395213
v 0.969957 9.360809 3.084728
v 1.371727 9.976398 2.335150
v 0.969957 10.591989 1.585574
v 0.000000 7.501842 3.850835
v 1.438905 7.880106 3.390239
v 0.435385 7.705047 4.385935
v 1.003520 7.854401 4.204075
v 0.719453 8.064306 4.499094
v 2.495805 9.410253 1.432786
v 2.040840 10.107349 0.583963
v 2.749609 10.356133 1.050907
v -0.359214 10.938511 -0.083094
v -1.364022 10.674364 0.238547
v -1.157762 11.272000 0.090499
v -2.457906 8.944088 2.275229
v -2.104625 8.402793 2.934345
v -2.774117 9.157747 2.922016
v 0.536436 10.724790 1.660104
v -1.045871 10.374835 2.086228
v 0.536436 10.617890 1.586632
v -1.045871 10.267936 2.012757
v 1.016434 9.919885 2.736006
v 1.018944 9.790765 2.639935
v 0.495517 9.865052 2.470732
v -0.431879 9.389697 3.097482
v -0.448085 9.526923 3.183682
vn 0.7081 0.6825 0.1810
vn 0.2774 0.1072 0.9547
vn -0.6855 0.3379 0.6449
vn -0.3000 0.9394 -0.1658
vn 0.1911 0.8062 0.5600
vn 0.0762 0.6433 0.7618
vn -0.1884 0.7068 0.6818
vn -0.0760 0.8756 0.4770
vn -0.2638 0.9617 -0.0742
vn 0.1461 0.4903 0.8592
vn -0.3256 0.9050 -0.2739
vn -0.3820 0.5386 -0.7510
vn 0.4329 0.7965 0.4221
vn -0.5970 0.4329 0.6755
vn -0.0550 0.8491 0.5254
vn 0.2672 0.1438 0.9528
vn -0.1986 0.7025 0.6834
vn 0.7392 0.6579 0.1441
vn -0.0121 0.9534 0.3014
vn 0.2120 0.6908 0.6912
vn -0.0478 0.5638 0.8245
vn -0.2476 0.8645 0.4373
vn -0.9169 -0.2182 0.3343
vn 0.2856 0.1199 0.9508
vn 0.6371 0.7263 0.2580
vn -0.6355 0.3918 0.6653
vn 0.3947 -0.7956 0.4597
vn 0.9186 0.3431 -0.1962
vn 0.3914 -0.6056 0.6929
vn -0.3606 0.7362 -0.5727
vn 0.0000 0.4750 0.8800
vn -0.3643 0.7786 -0.5109
vn -0.9211 -0.3444 0.1813
vn 0.9235 0.3119 -0.2233
vn -0.3099 0.5385 -0.7836
vn -0.4779 0.1031 0.8724
vn 0.0318 0.5661 -0.8237
vn 0.0000 -0.5664 0.8241
vn 0.7454 0.0782 0.6620
vn -0.7933 0.3449 -0.5018
vn -0.7058 0.4012 -0.5838
vn 0.6762 -0.4173 0.6072
vn -0.5473 -0.4741 0.6898
vn -1.0000 -0.0000 0.0000
vn -0.9994 -0.0193 0.0281
vn -0.6827 -0.4295 0.5912
vn 0.7058 0.4012 -0.5838
vn -0.9901 0.0795 -0.1157
vn 0.4509 -0.5056 0.7356
vn 0.9582 -0.1620 0.2357
vn 0.9880 0.0875 -0.1273
vn 0.3254 0.5356 -0.7793
vn 1.0000 -0.0000 0.0000
vn 0.9028 0.2436 -0.3544
vn 0.2350 -0.5506 0.8010
vn 0.8617 -0.0954 0.4984
vn 0.0573 0.5655 -0.8228
vn -0.6965 -0.1348 0.7048
vn -0.9126 0.2315 -0.3369
vn -0.1377 0.5610 -0.8163
vn -0.5663 0.4668 -0.6793
vn -0.8065 -0.3349 0.4873
vn 0.3820 -0.5386 0.7510
vn 0.2895 -0.9490 0.1249
vn -0.1461 -0.4903 -0.8592
vn -0.2774 -0.1072 -0.9547
vn 0.5970 -0.4329 -0.6755
vn -0.4329 -0.7965 -0.4221
vn -0.7081 -0.6825 -0.1810
vn -0.2672 -0.1438 -0.9528
vn 0.0550 -0.8491 -0.5254
vn 0.3000 -0.9394 0.1658
vn 0.0141 -0.7962 -0.6049
vn -0.7392 -0.6579 -0.1441
vn 0.1986 -0.7025 -0.6834
vn 0.6855 -0.3379 -0.6449
vn 0.0055 -0.7792 -0.6267
vn 0.0075 -0.7960 -0.6052
vn -0.0325 -0.7165 -0.6969
vn -0.7976 0.3417 -0.4971
vn 0.5846 0.4596 -0.6686
vn -0.3243 0.7477 0.5795
vn 0.1987 0.8900 0.4104
vn 0.7121 -0.4039 0.5742
vn 0.2179 0.7008 0.6793
vn 0.9968 -0.0398 0.0690
vn 0.0307 -0.7607 -0.6484
vn -0.1503 0.5958 0.7890
vn -0.0505 -0.7584 -0.6499
vn 0.0161 -0.5485 0.8360
vn 0.9210 0.2808 -0.2699
vn 0.3822 -0.4802 0.7895
vn -0.9221 -0.1647 0.3503
vn -0.3811 0.5951 -0.7076
vn 0.3811 0.5951 -0.7076
vn 0.9221 -0.1647 0.3503
vn -0.3822 -0.4802 0.7895
vn -0.9210 0.2808 -0.2699
vn -0.3819 0.5926 -0.7092
vn 0.3819 0.5926 -0.7092
vn 0.9185 -0.1430 0.3686
vn -0.3791 -0.4429 0.8125
vn -0.9213 0.2866 -0.2626
vn 0.9213 0.2866 -0.2626
vn 0.3791 -0.4429 0.8125
vn -0.9185 -0.1430 0.3686
vn 0.9218 0.2938 -0.2528
vn 0.3777 -0.4549 0.8065
vn -0.9170 -0.1469 0.3709
vn -0.3825 0.6071 -0.6965
vn 0.3825 0.6071 -0.6965
vn 0.9170 -0.1469 0.3709
vn -0.3777 -0.4549 0.8065
vn -0.9218 0.2938 -0.2528
vn -0.7081 0.6825 0.1810
vn 0.3000 0.9394 -0.1658
vn 0.6855 0.3379 0.6449
vn -0.2774 0.1072 0.9547
vn 0.1319 0.9275 0.3498
vn 0.3072 0.6481 0.6969
vn -0.1254 0.5379 0.8336
vn -0.3136 0.8094 0.4966
vn 0.3136 0.8094 0.4966
vn 0.1254 0.5379 0.8336
vn -0.3072 0.6481 0.6969
vn -0.1319 0.9275 0.3498
vn 0.9178 0.1207 -0.3784
vn 0.3802 -0.6145 0.6913
vn -0.9178 -0.3100 0.2482
vn -0.3802 0.4252 -0.8214
vn 0.3802 0.4252 -0.8214
vn 0.9178 -0.3100 0.2482
vn -0.3802 -0.6145 0.6913
vn -0.9178 0.1207 -0.3784
vn 0.6700 -0.4102 -0.6187
vn 0.2935 -0.9302 0.2205
vn -0.6924 -0.7080 -0.1386
vn -0.2711 -0.2109 -0.9392
vn 0.2711 -0.2109 -0.9392
vn 0.6924 -0.7080 -0.1386
vn -0.2935 -0.9302 0.2205
vn -0.6700 -0.4102 -0.6187
vn -0.0842 -0.9191 -0.3850
vn -0.2235 -0.7472 -0.6259
vn 0.2235 -0.7472 -0.6259
vn 0.0842 -0.9191 -0.3850
vn -0.2112 -0.8518 -0.4793
vn -0.0965 -0.6654 -0.7402
vn 0.0965 -0.6654 -0.7402
vn 0.2112 -0.8518 -0.4793
vn 0.0322 -0.7771 -0.6285
vn 0.0724 -0.8386 -0.5400
vn -0.0291 -0.8616 -0.5068
vn -0.0755 -0.8037 -0.5903
vn 0.0755 -0.8037 -0.5903
vn 0.0291 -0.8616 -0.5068
vn -0.0724 -0.8386 -0.5400
vn -0.0322 -0.7771 -0.6285
usemtl 4CAF50
s off
f 80//1 81//1 89//1 88//1
f 78//2 79//2 87//2 86//2
f 76//3 77//3 85//3 84//3
f 74//4 75//4 83//4 82//4
f 88//5 89//5 90//5 93//5
f 86//6 87//6 93//6 92//6
f 84//7 85//7 92//7 91//7
f 82//8 83//8 91//8 90//8
f 90//9 91//9 109//9 108//9
f 79//10 78//10 94//10 95//10
f 95//11 94//11 96//11 97//11
f 97//12 96//12 98//12
f 81//13 80//13 99//13 100//13
f 100//14 99//14 101//14
f 75//15 74//15 102//15 103//15
f 103//16 102//16 104//16
f 77//17 76//17 105//17 106//17
f 106//18 105//18 107//18
f 90//19 89//19 150//19
f 93//20 87//20 154//20
f 92//21 85//21 158//21
f 91//22 151//22 84//22
f 109//23 110//23 114//23 113//23
f 92//24 93//24 111//24 110//24
f 93//25 90//25 108//25 111//25
f 91//26 92//26 110//26 109//26
f 114//27 115//27 119//27 118//27
f 111//28 108//28 112//28 115//28
f 110//29 111//29 115//29 114//29
f 108//30 109//30 113//30 112//30
f 117//31 118//31 119//31 116//31
f 112//32 113//32 117//32 116//32
f 113//33 114//33 118//33 117//33
f 115//34 112//34 116//34 119//34
f 76//35 84//35 130//35 122//35
f 98//36 96//36 138//36 140//36
f 150//37 89//37 135//37 152//37
f 80//38 88//38 134//38 126//38
f 97//39 98//39 140//39 139//39
f 107//40 105//40 147//40 149//40
f 89//41 81//41 127//41 135//41
f 99//42 80//42 126//42 141//42
f 106//43 107//43 149//43 148//43
f 78//44 86//44 132//44 124//44
f 75//45 103//45 145//45 121//45
f 86//46 158//46 157//46 132//46
f 87//47 79//47 125//47 133//47
f 151//48 83//48 129//48 153//48
f 85//49 77//49 123//49 131//49
f 101//50 99//50 141//50 143//50
f 74//51 82//51 128//51 120//51
f 100//52 101//52 143//52 142//52
f 79//53 95//53 137//53 125//53
f 102//54 74//54 120//54 144//54
f 94//44 78//44 124//44 136//44
f 77//55 106//55 148//55 123//55
f 95//56 97//56 139//56 137//56
f 104//57 102//57 144//57 146//57
f 96//58 94//58 136//58 138//58
f 103//59 104//59 146//59 145//59
f 81//60 100//60 142//60 127//60
f 105//61 76//61 122//61 147//61
f 83//62 75//62 121//62 129//62
f 140//63 138//63 139//63
f 139//64 138//64 136//64 137//64
f 137//65 136//65 124//65 125//65
f 132//66 133//66 125//66 124//66
f 143//67 141//67 142//67
f 142//68 141//68 126//68 127//68
f 134//69 135//69 127//69 126//69
f 146//70 144//70 145//70
f 145//71 144//71 120//71 121//71
f 121//72 120//72 128//72 129//72
f 152//73 153//73 129//73 128//73
f 149//74 147//74 148//74
f 148//75 147//75 122//75 123//75
f 130//76 131//76 123//76 122//76
f 131//77 130//77 135//77 156//77 157//77
f 134//78 155//78 156//78 135//78
f 135//79 130//79 153//79 152//79
f 84//80 151//80 153//80 130//80
f 82//81 150//81 152//81 128//81
f 151//82 91//82 83//82
f 150//83 82//83 90//83
f 154//84 155//84 134//84 88//84
f 154//85 88//85 93//85
f 155//86 154//86 87//86 133//86
f 156//87 155//87 133//87 132//87
f 158//88 86//88 92//88
f 157//89 156//89 132//89
f 157//90 158//90 85//90 131//90
usemtl 673AB7
f 7//91 8//91 16//91 15//91
f 5//92 6//92 14//92 13//92
f 3//93 4//93 12//93 11//93
f 1//94 2//94 10//94 9//94
f 8//95 1//95 9//95 16//95
f 6//96 7//96 15//96 14//96
f 4//97 5//97 13//97 12//97
f 2//98 3//98 11//98 10//98
f 9//99 10//99 18//99 17//99
f 16//100 9//100 17//100 24//100
f 14//101 15//101 23//101 22//101
f 12//102 13//102 21//102 20//102
f 10//103 11//103 19//103 18//103
f 15//104 16//104 24//104 23//104
f 13//105 14//105 22//105 21//105
f 11//106 12//106 20//106 19//106
f 23//107 24//107 32//107 31//107
f 21//108 22//108 30//108 29//108
f 19//109 20//109 28//109 27//109
f 17//110 18//110 26//110 25//110
f 24//111 17//111 25//111 32//111
f 22//112 23//112 31//112 30//112
f 20//113 21//113 29//113 28//113
f 18//114 19//114 27//114 26//114
f 26//115 27//115 35//115 34//115
f 31//1 32//1 40//1 39//1
f 29//2 30//2 38//2 37//2
f 27//3 28//3 36//3 35//3
f 25//4 26//4 34//4 33//4
f 32//116 25//116 33//116 40//116
f 30//117 31//117 39//117 38//117
f 28//118 29//118 37//118 36//118
f 40//119 33//119 41//119 48//119
f 38//120 39//120 47//120 46//120
f 36//121 37//121 45//121 44//121
f 34//122 35//122 43//122 42//122
f 39//123 40//123 48//123 47//123
f 37//124 38//124 46//124 45//124
f 35//125 36//125 44//125 43//125
f 33//126 34//126 42//126 41//126
f 8//127 7//127 55//127 56//127
f 6//128 5//128 53//128 54//128
f 4//129 3//129 51//129 52//129
f 2//130 1//130 49//130 50//130
f 1//131 8//131 56//131 49//131
f 7//132 6//132 54//132 55//132
f 5//133 4//133 52//133 53//133
f 3//134 2//134 50//134 51//134
f 56//135 55//135 63//135 64//135
f 54//136 53//136 61//136 62//136
f 52//137 51//137 59//137 60//137
f 50//138 49//138 57//138 58//138
f 49//139 56//139 64//139 57//139
f 55//140 54//140 62//140 63//140
f 53//141 52//141 60//141 61//141
f 51//142 50//142 58//142 59//142
f 61//143 60//143 68//143 69//143
f 59//144 58//144 66//144 67//144
f 64//145 63//145 71//145 72//145
f 62//146 61//146 69//146 70//146
f 60//147 59//147 67//147 68//147
f 58//148 57//148 65//148 66//148
f 57//149 64//149 72//149 65//149
f 63//150 62//150 70//150 71//150
f 65//151 72//151 73//151
f 71//152 70//152 73//152
f 69//153 68//153 73//153
f 67//154 66//154 73//154
f 72//155 71//155 73//155
f 70//156 69//156 73//156
f 68//157 67//157 73//157
f 66//158 65//158 73//158
